<svg xmlns="http://www.w3.org/2000/svg" xmlns:xlink="http://www.w3.org/1999/xlink" width="1080" zoomAndPan="magnify" viewBox="0 0 810 809.999993" height="1080" preserveAspectRatio="xMidYMid meet" version="1.0">
    <defs><g/></defs><g fill="#ffffff" fill-opacity="1"><g transform="translate(237.837882, 380.250001)"><g>
    <path d="M 18.625 0 L 7.015625 0 L 7.015625 -55.6875 L 38.921875 -55.6875 L 38.921875 -46.015625 L 18.625 -46.015625 L 18.625 -31.65625 L 37.515625 -31.65625 L 37.515625 -22.015625 L 18.625 -22.015625 Z M 18.625 0 "/></g>
</g>
    <g transform="translate(280.646474, 380.250001)"><g>
        <path d="M 7.015625 0 L 7.015625 -55.6875 L 18.8125 -55.6875 L 18.8125 0 Z M 7.015625 0 "/></g></g>
    <g transform="translate(306.468738, 380.250001)"><g>
        <path d="M 28.484375 0 L 16.6875 0 L 16.6875 -45.859375 L 1.5625 -45.859375 L 1.5625 -55.6875 L 43.609375 -55.6875 L 43.609375 -45.859375 L 28.484375 -45.859375 Z M 28.484375 0 "/></g></g><g transform="translate(351.638658, 380.250001)"><g><path d="M 30.578125 0 L 17.171875 -43.6875 L 16.828125 -43.6875 C 17.316406 -34.800781 17.5625 -28.875 17.5625 -25.90625 L 17.5625 0 L 7.015625 0 L 7.015625 -55.6875 L 23.078125 -55.6875 L 36.265625 -13.109375 L 36.484375 -13.109375 L 50.46875 -55.6875 L 66.53125 -55.6875 L 66.53125 0 L 55.53125 0 L 55.53125 -26.359375 C 55.53125 -27.597656 55.546875 -29.03125 55.578125 -30.65625 C 55.617188 -32.28125 55.789062 -36.597656 56.09375 -43.609375 L 55.765625 -43.609375 L 41.40625 0 Z M 30.578125 0 "/></g></g><g transform="translate(425.182599, 380.250001)"><g><path d="M 7.015625 0 L 7.015625 -55.6875 L 18.8125 -55.6875 L 18.8125 0 Z M 7.015625 0 "/></g></g><g transform="translate(451.004864, 380.250001)"><g><path d="M 56.40625 0 L 41.40625 0 L 17.171875 -42.125 L 16.828125 -42.125 C 17.316406 -34.6875 17.5625 -29.378906 17.5625 -26.203125 L 17.5625 0 L 7.015625 0 L 7.015625 -55.6875 L 21.90625 -55.6875 L 46.078125 -13.984375 L 46.34375 -13.984375 C 45.96875 -21.210938 45.78125 -26.328125 45.78125 -29.328125 L 45.78125 -55.6875 L 56.40625 -55.6875 Z M 56.40625 0 "/></g></g><g transform="translate(514.417946, 380.250001)"><g><path d="M 53.203125 -28.375 C 53.203125 -19.207031 50.59375 -12.1875 45.375 -7.3125 C 40.15625 -2.4375 32.625 0 22.78125 0 L 7.015625 0 L 7.015625 -55.6875 L 24.484375 -55.6875 C 33.578125 -55.6875 40.632812 -53.285156 45.65625 -48.484375 C 50.6875 -43.679688 53.203125 -36.976562 53.203125 -28.375 Z M 40.9375 -28.0625 C 40.9375 -40.03125 35.65625 -46.015625 25.09375 -46.015625 L 18.8125 -46.015625 L 18.8125 -9.75 L 23.875 -9.75 C 35.25 -9.75 40.9375 -15.851562 40.9375 -28.0625 Z M 40.9375 -28.0625 "/></g></g></g>
</svg>